Simulation
nRows=15
nColumns=15
endheader
time  TH_x TH_y TH_z SC_y  SC_z  SC_x  AC_y  AC_z  AC_x  GH_y  GH_z  GH_yy  EL_x  PS_y
0.0  0.000000  0.000000  0.000000  -22.546534384745566  4.740743710574837  -6.656661731621465  57.15747147306116  8.66334530976698  8.030933381965035  -151.62453428018395  4.046150717415177  -171.25703056041814  20.199699041661653  120.000000
0.04016479400749064  0.000000  0.000000  0.000000  -22.562611138918967  4.757429134521785  -6.638935211577372  57.126514647714686  8.713430615841192  8.01613947747579  -150.53713095342158  3.9132757181189035  -172.44372511248707  20.113583196960967  120.000000
0.08032958801498127  0.000000  0.000000  0.000000  -22.61302817128885  4.809393917409876  -6.588328318749157  57.02637551967735  8.859167249843305  7.966512802911684  -146.6545693140005  3.5317428164025517  -176.6282981529791  19.86367258257564  120.000000
0.12049438202247191  0.000000  0.000000  0.000000  -22.708467121861048  4.898744946667643  -6.516340214343751  56.84309373062433  9.08335018188148  7.878612808287353  -137.9023035028463  2.970547967466629  174.10750461379388  19.47465417547778  120.000000
0.16065917602996255  0.000000  0.000000  0.000000  -22.863480968546934  5.021890088939867  -6.440872009973054  56.5692986290837  9.361448789057999  7.7554658640612875  -119.80292398671118  2.4057096104976634  155.2839798762579  18.977642680393103  120.000000
0.20082397003745317  0.000000  0.000000  0.000000  -23.092208027501492  5.1727787314213485  -6.376419256734706  56.20538485174518  9.671950187306232  7.603580431457127  -88.77790937966967  2.2362774926849136  123.3271450608476  18.40248276698374  120.000000
0.24098876404494382  0.000000  0.000000  0.000000  -23.408093052194285  5.346517449745599  -6.3293389353618315  55.757785167138415  9.998146365169719  7.433431932297964  -58.360502689219345  2.861834939271898  91.7816303825486  17.776068104506823  120.000000
0.28115355805243447  0.000000  0.000000  0.000000  -23.82042777587642  5.540685867057875  -6.295942539981872  55.24140783183835  10.328813193945859  7.252668193557216  -40.48455901928168  4.134859261194212  72.59798631401152  17.120921905678372  120.000000
0.3213183520599251  0.000000  0.000000  0.000000  -24.333657506756346  5.757430321436701  -6.263868927692109  54.675218464392714  10.657439938051514  7.066982224826588  -30.938672043693664  5.785719577167421  61.58541876457274  16.45567458162818  120.000000
0.3614831460674157  0.000000  0.000000  0.000000  -24.94630838250651  5.9996504573292855  -6.217787445793282  54.078322162855464  10.982164192451215  6.88186986636002  -25.464045866529982  7.686180009674055  54.509081029516565  15.794300376380018  120.000000
0.40164794007490634  0.000000  0.000000  0.000000  -25.652554623489774  6.269668908451312  -6.142278574507058  53.46989102907823  11.303217278303482  6.701495861606681  -22.080600844450554  9.77802028465957  49.414763550185704  15.14758481000437  120.000000
0.441812734082397  0.000000  0.000000  0.000000  -26.443343385890863  6.569813519711832  -6.020060325569787  52.8677996555094  11.618438232715853  6.528555462854773  -19.887045368534327  12.027109330801682  45.42858759212349  14.523841842416392  120.000000
0.48197752808988764  0.000000  0.000000  0.000000  -27.307302365130916  6.900633914266319  -5.832349724315965  52.28844640463193  11.922329111277852  6.363798141557709  -18.436050752509352  14.406728795709078  42.13109676759874  13.929123901862171  120.000000
0.5221423220973783  0.000000  0.000000  0.000000  -28.23116478152024  7.260547360158187  -5.5621218717385945  51.74693490973341  12.207410435488592  6.207492740081916  -17.482005037806776  16.89096128311333  39.304420089121734  13.36756989395619  120.000000
0.5623071161048689  0.000000  0.000000  0.000000  -29.200696607970627  7.646492507428999  -5.1971421973492875  51.256963919148895  12.46687153599379  6.061151837118813  -16.874470158354978  19.452702747813422  36.824713270989164  12.84159380746089  120.000000
